<svg xmlns="http://www.w3.org/2000/svg" version="1.1" xmlnsXlink="http://www.w3.org/1999/xlink"
    xmlns:svgjs="http://svgjs.dev/svgjs" width="1440" height="560" preserveAspectRatio="none"
    viewBox="0 0 1440 560">
    <g mask="url(&quot;#SvgjsMask1016&quot;)" fill="none">
        <rect width="1440" height="560" x="0" y="0" fill="#0e2a47"></rect>
        <path
            d="M96.1473465849082 331.75931044126133L233.77413981570783 417.94055897905906 241.2031533645346 276.18653599891127z"
            fill="rgba(28, 83, 142, 0.4)" class="triangle-float1"></path>
        <path
            d="M533.7224400007725 266.60697211792456L550.1172666868157 422.5933283727537 689.7087962556017 250.21214543188137z"
            fill="rgba(28, 83, 142, 0.4)" class="triangle-float3"></path>
        <path
            d="M1477.918,656.932C1518.803,655.496,1546.041,618.826,1564.998,582.573C1582.276,549.532,1588.751,511.335,1571.277,478.397C1552.699,443.379,1517.549,419.333,1477.918,418.435C1436.75,417.502,1397.492,438.314,1376.928,473.991C1356.389,509.626,1359.681,553.077,1379.559,589.085C1400.191,626.458,1435.254,658.43,1477.918,656.932"
            fill="rgba(28, 83, 142, 0.4)" class="triangle-float3"></path>
        <path
            d="M1274.5203634019747 277.2682870039707L1187.4419782684754 310.69454728568377 1220.8682385501884 397.77293241918306 1307.9466236836877 364.34667213747z"
            fill="rgba(28, 83, 142, 0.4)" class="triangle-float3"></path>
        <path
            d="M811.4137189713686 382.6556994943694L824.3156187480154 290.8539124623811 680.1619883117095 317.40195631340504z"
            fill="rgba(28, 83, 142, 0.4)" class="triangle-float2"></path>
        <path
            d="M628.589,264.238C656.739,263.109,682.857,249.47,697.074,225.147C711.424,200.596,712.741,169.849,697.959,145.556C683.696,122.115,656.028,112.634,628.589,112.596C601.072,112.558,574.115,122.445,558.886,145.364C541.851,171.001,534.308,204.497,549.878,231.05C565.314,257.376,598.096,265.461,628.589,264.238"
            fill="rgba(28, 83, 142, 0.4)" class="triangle-float3"></path>
        <path
            d="M175.13,258.225C225.971,261.928,281.822,254.844,310.315,212.575C341.641,166.103,339.911,104.102,311.643,55.71C283.613,7.726,230.697,-18.201,175.13,-18.846C118.325,-19.506,58.021,1.466,33.011,52.473C9.828,99.753,40.305,151.762,70.232,195.089C95.091,231.079,131.505,255.048,175.13,258.225"
            fill="rgba(28, 83, 142, 0.4)" class="triangle-float3"></path>
        <path
            d="M-5.72,100.054C15.56,98.804,31.209,82.739,42.163,64.452C53.527,45.481,63.257,22.518,52.193,3.371C41.133,-15.769,16.386,-18.393,-5.72,-18.416C-27.881,-18.439,-51.648,-15.254,-63.841,3.251C-77.102,23.377,-76.852,50.048,-64.445,70.712C-52.372,90.82,-29.134,101.429,-5.72,100.054"
            fill="rgba(28, 83, 142, 0.4)" class="triangle-float2"></path>
        <path
            d="M1069.908,313.094C1116.954,310.397,1158.713,284.026,1181.5,242.779C1203.535,202.892,1201.661,154.9,1179.204,115.249C1156.4,74.985,1116.04,49.356,1069.908,45.752C1015.812,41.526,955.814,49.899,926.41,95.503C895.115,144.04,901.918,208.773,933.712,256.984C962.685,300.917,1017.368,316.106,1069.908,313.094"
            fill="rgba(28, 83, 142, 0.4)" class="triangle-float3"></path>
        <path
            d="M1161.825374443369 285.46142363317256L1090.1323831795232 183.07322106233158 987.7441806086822 254.76621232617728 1059.4371718725279 357.1544148970182z"
            fill="rgba(28, 83, 142, 0.4)" class="triangle-float2"></path>
    </g>
    <defs>
        <mask id="SvgjsMask1016">
            <rect width="1440" height="560" fill="#ffffff"></rect>
        </mask>
        <style>
            @keyframes float1 {
            0%{transform: translate(0, 0)}
            50%{transform: translate(-10px, 0)}
            100%{transform: translate(0, 0)}
            }

            .triangle-float1 {
            animation: float1 5s infinite;
            }

            @keyframes float2 {
            0%{transform: translate(0, 0)}
            50%{transform: translate(-5px, -5px)}
            100%{transform: translate(0, 0)}
            }

            .triangle-float2 {
            animation: float2 4s infinite;
            }

            @keyframes float3 {
            0%{transform: translate(0, 0)}
            50%{transform: translate(0, -10px)}
            100%{transform: translate(0, 0)}
            }

            .triangle-float3 {
            animation: float3 6s infinite;
            }
        </style>
    </defs>
</svg>