<svg xmlns="http://www.w3.org/2000/svg" version="1.1" xmlns:xlink="http://www.w3.org/1999/xlink" xmlns:svgjs="http://svgjs.dev/svgjs" width="1440" height="560" preserveAspectRatio="none" viewBox="0 0 1440 560"><g mask="url(&quot;#SvgjsMask1000&quot;)" fill="none"><rect width="1440" height="560" x="0" y="0" fill="#0e2a47"></rect><path d="M-94.08 381.23L-94.08 381.23" stroke="#132e65" stroke-width="1.5"></path><path d="M-94.08 381.23L-103.22 505.05" stroke="#132e65" stroke-width="1.5"></path><path d="M-94.08 381.23L79.7 391.7" stroke="#132e65" stroke-width="1.5"></path><path d="M-94.08 381.23L81.84 506.57" stroke="#132e65" stroke-width="1.5"></path><path d="M-103.22 505.05L-103.22 505.05" stroke="#132e65" stroke-width="1.5"></path><path d="M-103.22 505.05L-95.81 674.18" stroke="#132e65" stroke-width="1.5"></path><path d="M-95.81 674.18L-95.81 674.18" stroke="#132e65" stroke-width="1.5"></path><path d="M79.7 391.7L79.7 391.7" stroke="#132e65" stroke-width="1.5"></path><path d="M79.7 391.7L81.84 506.57" stroke="#132e65" stroke-width="1.5"></path><path d="M79.7 391.7L208.38 494.69" stroke="#132e65" stroke-width="1.5"></path><path d="M81.84 506.57L81.84 506.57" stroke="#132e65" stroke-width="1.5"></path><path d="M81.84 506.57L208.38 494.69" stroke="#132e65" stroke-width="1.5"></path><path d="M81.84 506.57L80.77 651.79" stroke="#132e65" stroke-width="1.5"></path><path d="M81.84 506.57L-103.22 505.05" stroke="#132e65" stroke-width="1.5"></path><path d="M80.77 651.79L80.77 651.79" stroke="#132e65" stroke-width="1.5"></path><path d="M80.77 651.79L192.02 700.93" stroke="#132e65" stroke-width="1.5"></path><path d="M80.77 651.79L-95.81 674.18" stroke="#132e65" stroke-width="1.5"></path><path d="M80.77 651.79L208.38 494.69" stroke="#132e65" stroke-width="1.5"></path><path d="M80.77 651.79L-103.22 505.05" stroke="#132e65" stroke-width="1.5"></path><path d="M208.38 494.69L208.38 494.69" stroke="#132e65" stroke-width="1.5"></path><path d="M208.38 494.69L344.29 406.16" stroke="#132e65" stroke-width="1.5"></path><path d="M208.38 494.69L396.81 513.19" stroke="#132e65" stroke-width="1.5"></path><path d="M208.38 494.69L192.02 700.93" stroke="#132e65" stroke-width="1.5"></path><path d="M192.02 700.93L192.02 700.93" stroke="#132e65" stroke-width="1.5"></path><path d="M192.02 700.93L344.57 684.99" stroke="#132e65" stroke-width="1.5"></path><path d="M192.02 700.93L81.84 506.57" stroke="#132e65" stroke-width="1.5"></path><path d="M192.02 700.93L396.81 513.19" stroke="#132e65" stroke-width="1.5"></path><path d="M192.02 700.93L-95.81 674.18" stroke="#132e65" stroke-width="1.5"></path><path d="M344.29 406.16L344.29 406.16" stroke="#132e65" stroke-width="1.5"></path><path d="M344.29 406.16L396.81 513.19" stroke="#132e65" stroke-width="1.5"></path><path d="M344.29 406.16L508.83 395.67" stroke="#132e65" stroke-width="1.5"></path><path d="M396.81 513.19L396.81 513.19" stroke="#132e65" stroke-width="1.5"></path><path d="M396.81 513.19L508.83 395.67" stroke="#132e65" stroke-width="1.5"></path><path d="M396.81 513.19L344.57 684.99" stroke="#132e65" stroke-width="1.5"></path><path d="M344.57 684.99L344.57 684.99" stroke="#132e65" stroke-width="1.5"></path><path d="M344.57 684.99L531.76 694.2" stroke="#132e65" stroke-width="1.5"></path><path d="M344.57 684.99L208.38 494.69" stroke="#132e65" stroke-width="1.5"></path><path d="M508.83 395.67L508.83 395.67" stroke="#132e65" stroke-width="1.5"></path><path d="M508.83 395.67L667.58 506.38" stroke="#132e65" stroke-width="1.5"></path><path d="M531.76 694.2L531.76 694.2" stroke="#132e65" stroke-width="1.5"></path><path d="M531.76 694.2L645.28 669.08" stroke="#132e65" stroke-width="1.5"></path><path d="M531.76 694.2L396.81 513.19" stroke="#132e65" stroke-width="1.5"></path><path d="M531.76 694.2L667.58 506.38" stroke="#132e65" stroke-width="1.5"></path><path d="M695.06 251.96L695.06 251.96" stroke="#132e65" stroke-width="1.5"></path><path d="M695.06 251.96L790.5 212.22" stroke="#132e65" stroke-width="1.5"></path><path d="M695.06 251.96L856.67 357.74" stroke="#132e65" stroke-width="1.5"></path><path d="M695.06 251.96L508.83 395.67" stroke="#132e65" stroke-width="1.5"></path><path d="M695.06 251.96L667.58 506.38" stroke="#132e65" stroke-width="1.5"></path><path d="M667.58 506.38L667.58 506.38" stroke="#132e65" stroke-width="1.5"></path><path d="M667.58 506.38L645.28 669.08" stroke="#132e65" stroke-width="1.5"></path><path d="M667.58 506.38L827.93 558.85" stroke="#132e65" stroke-width="1.5"></path><path d="M645.28 669.08L645.28 669.08" stroke="#132e65" stroke-width="1.5"></path><path d="M645.28 669.08L827.67 641.68" stroke="#132e65" stroke-width="1.5"></path><path d="M790.5 212.22L790.5 212.22" stroke="#132e65" stroke-width="1.5"></path><path d="M790.5 212.22L856.67 357.74" stroke="#132e65" stroke-width="1.5"></path><path d="M790.5 212.22L996.9 227.47" stroke="#132e65" stroke-width="1.5"></path><path d="M856.67 357.74L856.67 357.74" stroke="#132e65" stroke-width="1.5"></path><path d="M856.67 357.74L986.3 409.1" stroke="#132e65" stroke-width="1.5"></path><path d="M856.67 357.74L996.9 227.47" stroke="#132e65" stroke-width="1.5"></path><path d="M827.93 558.85L827.93 558.85" stroke="#132e65" stroke-width="1.5"></path><path d="M827.93 558.85L827.67 641.68" stroke="#132e65" stroke-width="1.5"></path><path d="M827.93 558.85L965.51 528.11" stroke="#132e65" stroke-width="1.5"></path><path d="M827.93 558.85L951.24 655.52" stroke="#132e65" stroke-width="1.5"></path><path d="M827.67 641.68L827.67 641.68" stroke="#132e65" stroke-width="1.5"></path><path d="M827.67 641.68L951.24 655.52" stroke="#132e65" stroke-width="1.5"></path><path d="M827.67 641.68L965.51 528.11" stroke="#132e65" stroke-width="1.5"></path><path d="M948.5 -48.94L948.5 -48.94" stroke="#132e65" stroke-width="1.5"></path><path d="M948.5 -48.94L1152.93 -84" stroke="#132e65" stroke-width="1.5"></path><path d="M948.5 -48.94L996.9 227.47" stroke="#132e65" stroke-width="1.5"></path><path d="M948.5 -48.94L1243.98 -50.95" stroke="#132e65" stroke-width="1.5"></path><path d="M996.9 227.47L996.9 227.47" stroke="#132e65" stroke-width="1.5"></path><path d="M996.9 227.47L1118.18 205.69" stroke="#132e65" stroke-width="1.5"></path><path d="M996.9 227.47L986.3 409.1" stroke="#132e65" stroke-width="1.5"></path><path d="M986.3 409.1L986.3 409.1" stroke="#132e65" stroke-width="1.5"></path><path d="M986.3 409.1L965.51 528.11" stroke="#132e65" stroke-width="1.5"></path><path d="M965.51 528.11L965.51 528.11" stroke="#132e65" stroke-width="1.5"></path><path d="M965.51 528.11L951.24 655.52" stroke="#132e65" stroke-width="1.5"></path><path d="M951.24 655.52L951.24 655.52" stroke="#132e65" stroke-width="1.5"></path><path d="M951.24 655.52L1102.61 712.41" stroke="#132e65" stroke-width="1.5"></path><path d="M1152.93 -84L1152.93 -84" stroke="#132e65" stroke-width="1.5"></path><path d="M1152.93 -84L1243.98 -50.95" stroke="#132e65" stroke-width="1.5"></path><path d="M1152.93 -84L1293.17 78.19" stroke="#132e65" stroke-width="1.5"></path><path d="M1152.93 -84L1405.76 -107.47" stroke="#132e65" stroke-width="1.5"></path><path d="M1118.18 205.69L1118.18 205.69" stroke="#132e65" stroke-width="1.5"></path><path d="M1118.18 205.69L1132.91 353.34" stroke="#132e65" stroke-width="1.5"></path><path d="M1118.18 205.69L1243.97 351.76" stroke="#132e65" stroke-width="1.5"></path><path d="M1132.91 353.34L1132.91 353.34" stroke="#132e65" stroke-width="1.5"></path><path d="M1132.91 353.34L1243.97 351.76" stroke="#132e65" stroke-width="1.5"></path><path d="M1132.91 353.34L986.3 409.1" stroke="#132e65" stroke-width="1.5"></path><path d="M1144.82 518.07L1144.82 518.07" stroke="#132e65" stroke-width="1.5"></path><path d="M1144.82 518.07L1251.78 526.38" stroke="#132e65" stroke-width="1.5"></path><path d="M1144.82 518.07L1241 647.83" stroke="#132e65" stroke-width="1.5"></path><path d="M1144.82 518.07L1132.91 353.34" stroke="#132e65" stroke-width="1.5"></path><path d="M1144.82 518.07L965.51 528.11" stroke="#132e65" stroke-width="1.5"></path><path d="M1102.61 712.41L1102.61 712.41" stroke="#132e65" stroke-width="1.5"></path><path d="M1102.61 712.41L1241 647.83" stroke="#132e65" stroke-width="1.5"></path><path d="M1243.98 -50.95L1243.98 -50.95" stroke="#132e65" stroke-width="1.5"></path><path d="M1243.98 -50.95L1293.17 78.19" stroke="#132e65" stroke-width="1.5"></path><path d="M1243.98 -50.95L1405.76 -107.47" stroke="#132e65" stroke-width="1.5"></path><path d="M1243.98 -50.95L1409.89 106.46" stroke="#132e65" stroke-width="1.5"></path><path d="M1293.17 78.19L1293.17 78.19" stroke="#132e65" stroke-width="1.5"></path><path d="M1293.17 78.19L1409.89 106.46" stroke="#132e65" stroke-width="1.5"></path><path d="M1293.17 78.19L1461.82 196.27" stroke="#132e65" stroke-width="1.5"></path><path d="M1293.17 78.19L1118.18 205.69" stroke="#132e65" stroke-width="1.5"></path><path d="M1293.17 78.19L1405.76 -107.47" stroke="#132e65" stroke-width="1.5"></path><path d="M1243.97 351.76L1243.97 351.76" stroke="#132e65" stroke-width="1.5"></path><path d="M1243.97 351.76L1387.85 387.47" stroke="#132e65" stroke-width="1.5"></path><path d="M1243.97 351.76L1251.78 526.38" stroke="#132e65" stroke-width="1.5"></path><path d="M1251.78 526.38L1251.78 526.38" stroke="#132e65" stroke-width="1.5"></path><path d="M1251.78 526.38L1241 647.83" stroke="#132e65" stroke-width="1.5"></path><path d="M1251.78 526.38L1437.8 511.7" stroke="#132e65" stroke-width="1.5"></path><path d="M1241 647.83L1241 647.83" stroke="#132e65" stroke-width="1.5"></path><path d="M1241 647.83L1429.51 674.76" stroke="#132e65" stroke-width="1.5"></path><path d="M1405.76 -107.47L1405.76 -107.47" stroke="#132e65" stroke-width="1.5"></path><path d="M1405.76 -107.47L1566.01 -56.05" stroke="#132e65" stroke-width="1.5"></path><path d="M1405.76 -107.47L1409.89 106.46" stroke="#132e65" stroke-width="1.5"></path><path d="M1409.89 106.46L1409.89 106.46" stroke="#132e65" stroke-width="1.5"></path><path d="M1409.89 106.46L1461.82 196.27" stroke="#132e65" stroke-width="1.5"></path><path d="M1461.82 196.27L1461.82 196.27" stroke="#132e65" stroke-width="1.5"></path><path d="M1461.82 196.27L1569.65 261.24" stroke="#132e65" stroke-width="1.5"></path><path d="M1461.82 196.27L1565.81 99.56" stroke="#132e65" stroke-width="1.5"></path><path d="M1461.82 196.27L1586.38 338.17" stroke="#132e65" stroke-width="1.5"></path><path d="M1461.82 196.27L1387.85 387.47" stroke="#132e65" stroke-width="1.5"></path><path d="M1387.85 387.47L1387.85 387.47" stroke="#132e65" stroke-width="1.5"></path><path d="M1387.85 387.47L1437.8 511.7" stroke="#132e65" stroke-width="1.5"></path><path d="M1387.85 387.47L1251.78 526.38" stroke="#132e65" stroke-width="1.5"></path><path d="M1387.85 387.47L1586.38 338.17" stroke="#132e65" stroke-width="1.5"></path><path d="M1437.8 511.7L1437.8 511.7" stroke="#132e65" stroke-width="1.5"></path><path d="M1437.8 511.7L1560.09 513.31" stroke="#132e65" stroke-width="1.5"></path><path d="M1437.8 511.7L1429.51 674.76" stroke="#132e65" stroke-width="1.5"></path><path d="M1429.51 674.76L1429.51 674.76" stroke="#132e65" stroke-width="1.5"></path><path d="M1429.51 674.76L1565.26 654.05" stroke="#132e65" stroke-width="1.5"></path><path d="M1566.01 -56.05L1566.01 -56.05" stroke="#132e65" stroke-width="1.5"></path><path d="M1566.01 -56.05L1565.81 99.56" stroke="#132e65" stroke-width="1.5"></path><path d="M1565.81 99.56L1565.81 99.56" stroke="#132e65" stroke-width="1.5"></path><path d="M1565.81 99.56L1409.89 106.46" stroke="#132e65" stroke-width="1.5"></path><path d="M1565.81 99.56L1569.65 261.24" stroke="#132e65" stroke-width="1.5"></path><path d="M1565.81 99.56L1586.38 338.17" stroke="#132e65" stroke-width="1.5"></path><path d="M1565.81 99.56L1405.76 -107.47" stroke="#132e65" stroke-width="1.5"></path><path d="M1569.65 261.24L1569.65 261.24" stroke="#132e65" stroke-width="1.5"></path><path d="M1569.65 261.24L1586.38 338.17" stroke="#132e65" stroke-width="1.5"></path><path d="M1569.65 261.24L1387.85 387.47" stroke="#132e65" stroke-width="1.5"></path><path d="M1569.65 261.24L1409.89 106.46" stroke="#132e65" stroke-width="1.5"></path><path d="M1569.65 261.24L1560.09 513.31" stroke="#132e65" stroke-width="1.5"></path><path d="M1586.38 338.17L1586.38 338.17" stroke="#132e65" stroke-width="1.5"></path><path d="M1586.38 338.17L1560.09 513.31" stroke="#132e65" stroke-width="1.5"></path><path d="M1586.38 338.17L1437.8 511.7" stroke="#132e65" stroke-width="1.5"></path><path d="M1560.09 513.31L1560.09 513.31" stroke="#132e65" stroke-width="1.5"></path><path d="M1560.09 513.31L1565.26 654.05" stroke="#132e65" stroke-width="1.5"></path><path d="M1565.26 654.05L1565.26 654.05" stroke="#132e65" stroke-width="1.5"></path><path d="M1565.26 654.05L1437.8 511.7" stroke="#132e65" stroke-width="1.5"></path><path d="M1565.26 654.05L1586.38 338.17" stroke="#132e65" stroke-width="1.5"></path><path d="M1565.26 654.05L1387.85 387.47" stroke="#132e65" stroke-width="1.5"></path><path d="M1565.26 654.05L1241 647.83" stroke="#132e65" stroke-width="1.5"></path><circle r="5" cx="-94.08" cy="381.23" fill="#132e65"></circle><circle r="5" cx="-103.22" cy="505.05" fill="#132e65"></circle><circle r="5" cx="-95.81" cy="674.18" fill="#132e65"></circle><circle r="5" cx="79.7" cy="391.7" fill="#132e65"></circle><circle r="5" cx="81.84" cy="506.57" fill="#132e65"></circle><circle r="5" cx="80.77" cy="651.79" fill="#132e65"></circle><circle r="5" cx="208.38" cy="494.69" fill="#132e65"></circle><circle r="5" cx="192.02" cy="700.93" fill="#132e65"></circle><circle r="5" cx="344.29" cy="406.16" fill="#132e65"></circle><circle r="5" cx="396.81" cy="513.19" fill="#132e65"></circle><circle r="5" cx="344.57" cy="684.99" fill="#132e65"></circle><circle r="5" cx="508.83" cy="395.67" fill="#132e65"></circle><circle r="5" cx="531.76" cy="694.2" fill="#132e65"></circle><circle r="5" cx="695.06" cy="251.96" fill="#132e65"></circle><circle r="5" cx="667.58" cy="506.38" fill="#132e65"></circle><circle r="5" cx="645.28" cy="669.08" fill="#132e65"></circle><circle r="5" cx="790.5" cy="212.22" fill="#132e65"></circle><circle r="5" cx="856.67" cy="357.74" fill="#132e65"></circle><circle r="5" cx="827.93" cy="558.85" fill="#132e65"></circle><circle r="5" cx="827.67" cy="641.68" fill="#132e65"></circle><circle r="5" cx="948.5" cy="-48.94" fill="#132e65"></circle><circle r="5" cx="996.9" cy="227.47" fill="#132e65"></circle><circle r="5" cx="986.3" cy="409.1" fill="#132e65"></circle><circle r="5" cx="965.51" cy="528.11" fill="#132e65"></circle><circle r="5" cx="951.24" cy="655.52" fill="#132e65"></circle><circle r="5" cx="1152.93" cy="-84" fill="#132e65"></circle><circle r="5" cx="1118.18" cy="205.69" fill="#132e65"></circle><circle r="5" cx="1132.91" cy="353.34" fill="#132e65"></circle><circle r="5" cx="1144.82" cy="518.07" fill="#132e65"></circle><circle r="5" cx="1102.61" cy="712.41" fill="#132e65"></circle><circle r="5" cx="1243.98" cy="-50.95" fill="#132e65"></circle><circle r="5" cx="1293.17" cy="78.19" fill="#132e65"></circle><circle r="5" cx="1243.97" cy="351.76" fill="#132e65"></circle><circle r="5" cx="1251.78" cy="526.38" fill="#132e65"></circle><circle r="5" cx="1241" cy="647.83" fill="#132e65"></circle><circle r="5" cx="1405.76" cy="-107.47" fill="#132e65"></circle><circle r="5" cx="1409.89" cy="106.46" fill="#132e65"></circle><circle r="5" cx="1461.82" cy="196.27" fill="#132e65"></circle><circle r="5" cx="1387.85" cy="387.47" fill="#132e65"></circle><circle r="5" cx="1437.8" cy="511.7" fill="#132e65"></circle><circle r="5" cx="1429.51" cy="674.76" fill="#132e65"></circle><circle r="5" cx="1566.01" cy="-56.05" fill="#132e65"></circle><circle r="5" cx="1565.81" cy="99.56" fill="#132e65"></circle><circle r="5" cx="1569.65" cy="261.24" fill="#132e65"></circle><circle r="5" cx="1586.38" cy="338.17" fill="#132e65"></circle><circle r="5" cx="1560.09" cy="513.31" fill="#132e65"></circle><circle r="5" cx="1565.26" cy="654.05" fill="#132e65"></circle><path d="M57.71 668.09L57.71 668.09" stroke="hsl(228.5, 77.2%, 51.5%)" stroke-width="1.5"></path><path d="M57.71 668.09L98.73 543.59" stroke="hsl(228.5, 77.2%, 51.5%)" stroke-width="1.5"></path><path d="M57.71 668.09L-77.5 650.99" stroke="hsl(228.5, 77.2%, 51.5%)" stroke-width="1.5"></path><path d="M57.71 668.09L258.52 641.25" stroke="hsl(228.5, 77.2%, 51.5%)" stroke-width="1.5"></path><path d="M57.71 668.09L-67.84 490.19" stroke="hsl(228.5, 77.2%, 51.5%)" stroke-width="1.5"></path><path d="M258.52 641.25L258.52 641.25" stroke="hsl(228.5, 77.2%, 51.5%)" stroke-width="1.5"></path><path d="M258.52 641.25L239.4 507.77" stroke="hsl(228.5, 77.2%, 51.5%)" stroke-width="1.5"></path><path d="M258.52 641.25L98.73 543.59" stroke="hsl(228.5, 77.2%, 51.5%)" stroke-width="1.5"></path><path d="M258.52 641.25L388.68 496.46" stroke="hsl(228.5, 77.2%, 51.5%)" stroke-width="1.5"></path><path d="M258.52 641.25L512.1 645.16" stroke="hsl(228.5, 77.2%, 51.5%)" stroke-width="1.5"></path><path d="M258.52 641.25L493.22 488.58" stroke="hsl(228.5, 77.2%, 51.5%)" stroke-width="1.5"></path><path d="M677.93 645.95L677.93 645.95" stroke="hsl(228.5, 77.2%, 51.5%)" stroke-width="1.5"></path><path d="M677.93 645.95L512.1 645.16" stroke="hsl(228.5, 77.2%, 51.5%)" stroke-width="1.5"></path><path d="M677.93 645.95L852.65 664.3" stroke="hsl(228.5, 77.2%, 51.5%)" stroke-width="1.5"></path><path d="M859.37 387.6L859.37 387.6" stroke="hsl(228.5, 77.2%, 51.5%)" stroke-width="1.5"></path><path d="M859.37 387.6L813.3 491.08" stroke="hsl(228.5, 77.2%, 51.5%)" stroke-width="1.5"></path><path d="M859.37 387.6L973.81 551.69" stroke="hsl(228.5, 77.2%, 51.5%)" stroke-width="1.5"></path><path d="M859.37 387.6L852.65 664.3" stroke="hsl(228.5, 77.2%, 51.5%)" stroke-width="1.5"></path><path d="M1155.22 342.16L1155.22 342.16" stroke="hsl(228.5, 77.2%, 51.5%)" stroke-width="1.5"></path><path d="M1155.22 342.16L1244.27 407.34" stroke="hsl(228.5, 77.2%, 51.5%)" stroke-width="1.5"></path><path d="M1155.22 342.16L1111.11 226.66" stroke="hsl(228.5, 77.2%, 51.5%)" stroke-width="1.5"></path><path d="M1155.22 342.16L1262.43 254.27" stroke="hsl(228.5, 77.2%, 51.5%)" stroke-width="1.5"></path><path d="M1155.22 342.16L1126.54 527.83" stroke="hsl(228.5, 77.2%, 51.5%)" stroke-width="1.5"></path><path d="M1155.22 342.16L1309.07 513.05" stroke="hsl(228.5, 77.2%, 51.5%)" stroke-width="1.5"></path><path d="M1155.22 342.16L1411.31 252.3" stroke="hsl(228.5, 77.2%, 51.5%)" stroke-width="1.5"></path><path d="M1273.55 -42.9L1273.55 -42.9" stroke="hsl(228.5, 77.2%, 51.5%)" stroke-width="1.5"></path><path d="M1273.55 -42.9L1293.95 86.25" stroke="hsl(228.5, 77.2%, 51.5%)" stroke-width="1.5"></path><path d="M1273.55 -42.9L1414.84 -60" stroke="hsl(228.5, 77.2%, 51.5%)" stroke-width="1.5"></path><path d="M1273.55 -42.9L1157.9 49.66" stroke="hsl(228.5, 77.2%, 51.5%)" stroke-width="1.5"></path><path d="M1455.95 538.83L1455.95 538.83" stroke="hsl(228.5, 77.2%, 51.5%)" stroke-width="1.5"></path><path d="M1455.95 538.83L1309.07 513.05" stroke="hsl(228.5, 77.2%, 51.5%)" stroke-width="1.5"></path><path d="M1455.95 538.83L1421.67 707.08" stroke="hsl(228.5, 77.2%, 51.5%)" stroke-width="1.5"></path><path d="M1569.8 -89.37L1569.8 -89.37" stroke="hsl(228.5, 77.2%, 51.5%)" stroke-width="1.5"></path><path d="M1569.8 -89.37L1584.37 42.31" stroke="hsl(228.5, 77.2%, 51.5%)" stroke-width="1.5"></path><path d="M1569.8 -89.37L1414.84 -60" stroke="hsl(228.5, 77.2%, 51.5%)" stroke-width="1.5"></path><path d="M1569.8 -89.37L1400.11 51.85" stroke="hsl(228.5, 77.2%, 51.5%)" stroke-width="1.5"></path><path d="M1569.8 -89.37L1273.55 -42.9" stroke="hsl(228.5, 77.2%, 51.5%)" stroke-width="1.5"></path><path d="M-67.84 490.19L-67.84 490.19" stroke="hsl(228.5, 77.2%, 51.5%)" stroke-width="1.5"></path><path d="M-67.84 490.19L-77.5 650.99" stroke="hsl(228.5, 77.2%, 51.5%)" stroke-width="1.5"></path><path d="M-77.5 650.99L-77.5 650.99" stroke="hsl(228.5, 77.2%, 51.5%)" stroke-width="1.5"></path><path d="M-77.5 650.99L98.73 543.59" stroke="hsl(228.5, 77.2%, 51.5%)" stroke-width="1.5"></path><path d="M-77.5 650.99L258.52 641.25" stroke="hsl(228.5, 77.2%, 51.5%)" stroke-width="1.5"></path><path d="M-77.5 650.99L239.4 507.77" stroke="hsl(228.5, 77.2%, 51.5%)" stroke-width="1.5"></path><path d="M-77.5 650.99L388.68 496.46" stroke="hsl(228.5, 77.2%, 51.5%)" stroke-width="1.5"></path><path d="M98.73 543.59L98.73 543.59" stroke="hsl(228.5, 77.2%, 51.5%)" stroke-width="1.5"></path><path d="M98.73 543.59L239.4 507.77" stroke="hsl(228.5, 77.2%, 51.5%)" stroke-width="1.5"></path><path d="M239.4 507.77L239.4 507.77" stroke="hsl(228.5, 77.2%, 51.5%)" stroke-width="1.5"></path><path d="M239.4 507.77L388.68 496.46" stroke="hsl(228.5, 77.2%, 51.5%)" stroke-width="1.5"></path><path d="M388.68 496.46L388.68 496.46" stroke="hsl(228.5, 77.2%, 51.5%)" stroke-width="1.5"></path><path d="M388.68 496.46L493.22 488.58" stroke="hsl(228.5, 77.2%, 51.5%)" stroke-width="1.5"></path><path d="M549.29 404.71L549.29 404.71" stroke="hsl(228.5, 77.2%, 51.5%)" stroke-width="1.5"></path><path d="M549.29 404.71L493.22 488.58" stroke="hsl(228.5, 77.2%, 51.5%)" stroke-width="1.5"></path><path d="M549.29 404.71L388.68 496.46" stroke="hsl(228.5, 77.2%, 51.5%)" stroke-width="1.5"></path><path d="M549.29 404.71L512.1 645.16" stroke="hsl(228.5, 77.2%, 51.5%)" stroke-width="1.5"></path><path d="M549.29 404.71L677.93 645.95" stroke="hsl(228.5, 77.2%, 51.5%)" stroke-width="1.5"></path><path d="M549.29 404.71L813.3 491.08" stroke="hsl(228.5, 77.2%, 51.5%)" stroke-width="1.5"></path><path d="M493.22 488.58L493.22 488.58" stroke="hsl(228.5, 77.2%, 51.5%)" stroke-width="1.5"></path><path d="M493.22 488.58L512.1 645.16" stroke="hsl(228.5, 77.2%, 51.5%)" stroke-width="1.5"></path><path d="M493.22 488.58L677.93 645.95" stroke="hsl(228.5, 77.2%, 51.5%)" stroke-width="1.5"></path><path d="M512.1 645.16L512.1 645.16" stroke="hsl(228.5, 77.2%, 51.5%)" stroke-width="1.5"></path><path d="M512.1 645.16L388.68 496.46" stroke="hsl(228.5, 77.2%, 51.5%)" stroke-width="1.5"></path><path d="M813.3 491.08L813.3 491.08" stroke="hsl(228.5, 77.2%, 51.5%)" stroke-width="1.5"></path><path d="M813.3 491.08L973.81 551.69" stroke="hsl(228.5, 77.2%, 51.5%)" stroke-width="1.5"></path><path d="M813.3 491.08L852.65 664.3" stroke="hsl(228.5, 77.2%, 51.5%)" stroke-width="1.5"></path><path d="M813.3 491.08L677.93 645.95" stroke="hsl(228.5, 77.2%, 51.5%)" stroke-width="1.5"></path><path d="M813.3 491.08L993.41 687.67" stroke="hsl(228.5, 77.2%, 51.5%)" stroke-width="1.5"></path><path d="M852.65 664.3L852.65 664.3" stroke="hsl(228.5, 77.2%, 51.5%)" stroke-width="1.5"></path><path d="M852.65 664.3L993.41 687.67" stroke="hsl(228.5, 77.2%, 51.5%)" stroke-width="1.5"></path><path d="M852.65 664.3L973.81 551.69" stroke="hsl(228.5, 77.2%, 51.5%)" stroke-width="1.5"></path><path d="M973.81 551.69L973.81 551.69" stroke="hsl(228.5, 77.2%, 51.5%)" stroke-width="1.5"></path><path d="M973.81 551.69L993.41 687.67" stroke="hsl(228.5, 77.2%, 51.5%)" stroke-width="1.5"></path><path d="M973.81 551.69L1126.54 527.83" stroke="hsl(228.5, 77.2%, 51.5%)" stroke-width="1.5"></path><path d="M993.41 687.67L993.41 687.67" stroke="hsl(228.5, 77.2%, 51.5%)" stroke-width="1.5"></path><path d="M993.41 687.67L1105.31 676.21" stroke="hsl(228.5, 77.2%, 51.5%)" stroke-width="1.5"></path><path d="M993.41 687.67L1126.54 527.83" stroke="hsl(228.5, 77.2%, 51.5%)" stroke-width="1.5"></path><path d="M993.41 687.67L1283.18 712.26" stroke="hsl(228.5, 77.2%, 51.5%)" stroke-width="1.5"></path><path d="M1157.9 49.66L1157.9 49.66" stroke="hsl(228.5, 77.2%, 51.5%)" stroke-width="1.5"></path><path d="M1157.9 49.66L1293.95 86.25" stroke="hsl(228.5, 77.2%, 51.5%)" stroke-width="1.5"></path><path d="M1111.11 226.66L1111.11 226.66" stroke="hsl(228.5, 77.2%, 51.5%)" stroke-width="1.5"></path><path d="M1111.11 226.66L1262.43 254.27" stroke="hsl(228.5, 77.2%, 51.5%)" stroke-width="1.5"></path><path d="M1111.11 226.66L1157.9 49.66" stroke="hsl(228.5, 77.2%, 51.5%)" stroke-width="1.5"></path><path d="M1111.11 226.66L1244.27 407.34" stroke="hsl(228.5, 77.2%, 51.5%)" stroke-width="1.5"></path><path d="M1111.11 226.66L1293.95 86.25" stroke="hsl(228.5, 77.2%, 51.5%)" stroke-width="1.5"></path><path d="M1126.54 527.83L1126.54 527.83" stroke="hsl(228.5, 77.2%, 51.5%)" stroke-width="1.5"></path><path d="M1126.54 527.83L1105.31 676.21" stroke="hsl(228.5, 77.2%, 51.5%)" stroke-width="1.5"></path><path d="M1105.31 676.21L1105.31 676.21" stroke="hsl(228.5, 77.2%, 51.5%)" stroke-width="1.5"></path><path d="M1293.95 86.25L1293.95 86.25" stroke="hsl(228.5, 77.2%, 51.5%)" stroke-width="1.5"></path><path d="M1293.95 86.25L1400.11 51.85" stroke="hsl(228.5, 77.2%, 51.5%)" stroke-width="1.5"></path><path d="M1293.95 86.25L1262.43 254.27" stroke="hsl(228.5, 77.2%, 51.5%)" stroke-width="1.5"></path><path d="M1293.95 86.25L1414.84 -60" stroke="hsl(228.5, 77.2%, 51.5%)" stroke-width="1.5"></path><path d="M1293.95 86.25L1411.31 252.3" stroke="hsl(228.5, 77.2%, 51.5%)" stroke-width="1.5"></path><path d="M1262.43 254.27L1262.43 254.27" stroke="hsl(228.5, 77.2%, 51.5%)" stroke-width="1.5"></path><path d="M1262.43 254.27L1411.31 252.3" stroke="hsl(228.5, 77.2%, 51.5%)" stroke-width="1.5"></path><path d="M1262.43 254.27L1244.27 407.34" stroke="hsl(228.5, 77.2%, 51.5%)" stroke-width="1.5"></path><path d="M1244.27 407.34L1244.27 407.34" stroke="hsl(228.5, 77.2%, 51.5%)" stroke-width="1.5"></path><path d="M1309.07 513.05L1309.07 513.05" stroke="hsl(228.5, 77.2%, 51.5%)" stroke-width="1.5"></path><path d="M1309.07 513.05L1244.27 407.34" stroke="hsl(228.5, 77.2%, 51.5%)" stroke-width="1.5"></path><path d="M1309.07 513.05L1126.54 527.83" stroke="hsl(228.5, 77.2%, 51.5%)" stroke-width="1.5"></path><path d="M1283.18 712.26L1283.18 712.26" stroke="hsl(228.5, 77.2%, 51.5%)" stroke-width="1.5"></path><path d="M1283.18 712.26L1421.67 707.08" stroke="hsl(228.5, 77.2%, 51.5%)" stroke-width="1.5"></path><path d="M1283.18 712.26L1105.31 676.21" stroke="hsl(228.5, 77.2%, 51.5%)" stroke-width="1.5"></path><path d="M1283.18 712.26L1309.07 513.05" stroke="hsl(228.5, 77.2%, 51.5%)" stroke-width="1.5"></path><path d="M1414.84 -60L1414.84 -60" stroke="hsl(228.5, 77.2%, 51.5%)" stroke-width="1.5"></path><path d="M1414.84 -60L1400.11 51.85" stroke="hsl(228.5, 77.2%, 51.5%)" stroke-width="1.5"></path><path d="M1400.11 51.85L1400.11 51.85" stroke="hsl(228.5, 77.2%, 51.5%)" stroke-width="1.5"></path><path d="M1400.11 51.85L1273.55 -42.9" stroke="hsl(228.5, 77.2%, 51.5%)" stroke-width="1.5"></path><path d="M1411.31 252.3L1411.31 252.3" stroke="hsl(228.5, 77.2%, 51.5%)" stroke-width="1.5"></path><path d="M1411.31 252.3L1585.6 224.25" stroke="hsl(228.5, 77.2%, 51.5%)" stroke-width="1.5"></path><path d="M1411.31 252.3L1400.11 51.85" stroke="hsl(228.5, 77.2%, 51.5%)" stroke-width="1.5"></path><path d="M1411.31 252.3L1612.46 357.98" stroke="hsl(228.5, 77.2%, 51.5%)" stroke-width="1.5"></path><path d="M1421.67 707.08L1421.67 707.08" stroke="hsl(228.5, 77.2%, 51.5%)" stroke-width="1.5"></path><path d="M1584.37 42.31L1584.37 42.31" stroke="hsl(228.5, 77.2%, 51.5%)" stroke-width="1.5"></path><path d="M1584.37 42.31L1585.6 224.25" stroke="hsl(228.5, 77.2%, 51.5%)" stroke-width="1.5"></path><path d="M1584.37 42.31L1400.11 51.85" stroke="hsl(228.5, 77.2%, 51.5%)" stroke-width="1.5"></path><path d="M1584.37 42.31L1414.84 -60" stroke="hsl(228.5, 77.2%, 51.5%)" stroke-width="1.5"></path><path d="M1584.37 42.31L1411.31 252.3" stroke="hsl(228.5, 77.2%, 51.5%)" stroke-width="1.5"></path><path d="M1584.37 42.31L1293.95 86.25" stroke="hsl(228.5, 77.2%, 51.5%)" stroke-width="1.5"></path><path d="M1585.6 224.25L1585.6 224.25" stroke="hsl(228.5, 77.2%, 51.5%)" stroke-width="1.5"></path><path d="M1585.6 224.25L1612.46 357.98" stroke="hsl(228.5, 77.2%, 51.5%)" stroke-width="1.5"></path><path d="M1585.6 224.25L1400.11 51.85" stroke="hsl(228.5, 77.2%, 51.5%)" stroke-width="1.5"></path><path d="M1585.6 224.25L1569.8 -89.37" stroke="hsl(228.5, 77.2%, 51.5%)" stroke-width="1.5"></path><path d="M1585.6 224.25L1293.95 86.25" stroke="hsl(228.5, 77.2%, 51.5%)" stroke-width="1.5"></path><path d="M1612.46 357.98L1612.46 357.98" stroke="hsl(228.5, 77.2%, 51.5%)" stroke-width="1.5"></path><path d="M1612.46 357.98L1455.95 538.83" stroke="hsl(228.5, 77.2%, 51.5%)" stroke-width="1.5"></path><path d="M1612.46 357.98L1584.37 42.31" stroke="hsl(228.5, 77.2%, 51.5%)" stroke-width="1.5"></path><path d="M1591.74 676.17L1591.74 676.17" stroke="hsl(228.5, 77.2%, 51.5%)" stroke-width="1.5"></path><path d="M1591.74 676.17L1421.67 707.08" stroke="hsl(228.5, 77.2%, 51.5%)" stroke-width="1.5"></path><path d="M1591.74 676.17L1455.95 538.83" stroke="hsl(228.5, 77.2%, 51.5%)" stroke-width="1.5"></path><path d="M1591.74 676.17L1283.18 712.26" stroke="hsl(228.5, 77.2%, 51.5%)" stroke-width="1.5"></path><path d="M1591.74 676.17L1612.46 357.98" stroke="hsl(228.5, 77.2%, 51.5%)" stroke-width="1.5"></path><path d="M1591.74 676.17L1309.07 513.05" stroke="hsl(228.5, 77.2%, 51.5%)" stroke-width="1.5"></path><circle r="25" cx="57.71" cy="668.09" fill="url(&quot;#SvgjsRadialGradient1001&quot;)"></circle><circle r="25" cx="258.52" cy="641.25" fill="url(&quot;#SvgjsRadialGradient1001&quot;)"></circle><circle r="25" cx="677.93" cy="645.95" fill="url(&quot;#SvgjsRadialGradient1001&quot;)"></circle><circle r="25" cx="859.37" cy="387.6" fill="url(&quot;#SvgjsRadialGradient1001&quot;)"></circle><circle r="25" cx="1155.22" cy="342.16" fill="url(&quot;#SvgjsRadialGradient1001&quot;)"></circle><circle r="25" cx="1273.55" cy="-42.9" fill="url(&quot;#SvgjsRadialGradient1001&quot;)"></circle><circle r="25" cx="1455.95" cy="538.83" fill="url(&quot;#SvgjsRadialGradient1001&quot;)"></circle><circle r="25" cx="1569.8" cy="-89.37" fill="url(&quot;#SvgjsRadialGradient1001&quot;)"></circle><circle r="5" cx="-67.84" cy="490.19" fill="#8b9ad9"></circle><circle r="5" cx="-77.5" cy="650.99" fill="#8b9ad9"></circle><circle r="5" cx="98.73" cy="543.59" fill="#8b9ad9"></circle><circle r="5" cx="239.4" cy="507.77" fill="#8b9ad9"></circle><circle r="5" cx="388.68" cy="496.46" fill="#8b9ad9"></circle><circle r="5" cx="549.29" cy="404.71" fill="#8b9ad9"></circle><circle r="5" cx="493.22" cy="488.58" fill="#8b9ad9"></circle><circle r="5" cx="512.1" cy="645.16" fill="#8b9ad9"></circle><circle r="5" cx="813.3" cy="491.08" fill="#8b9ad9"></circle><circle r="5" cx="852.65" cy="664.3" fill="#8b9ad9"></circle><circle r="5" cx="973.81" cy="551.69" fill="#8b9ad9"></circle><circle r="5" cx="993.41" cy="687.67" fill="#8b9ad9"></circle><circle r="5" cx="1157.9" cy="49.66" fill="#8b9ad9"></circle><circle r="5" cx="1111.11" cy="226.66" fill="#8b9ad9"></circle><circle r="5" cx="1126.54" cy="527.83" fill="#8b9ad9"></circle><circle r="5" cx="1105.31" cy="676.21" fill="#8b9ad9"></circle><circle r="5" cx="1293.95" cy="86.25" fill="#8b9ad9"></circle><circle r="5" cx="1262.43" cy="254.27" fill="#8b9ad9"></circle><circle r="5" cx="1244.27" cy="407.34" fill="#8b9ad9"></circle><circle r="5" cx="1309.07" cy="513.05" fill="#8b9ad9"></circle><circle r="5" cx="1283.18" cy="712.26" fill="#8b9ad9"></circle><circle r="5" cx="1414.84" cy="-60" fill="#8b9ad9"></circle><circle r="5" cx="1400.11" cy="51.85" fill="#8b9ad9"></circle><circle r="5" cx="1411.31" cy="252.3" fill="#8b9ad9"></circle><circle r="5" cx="1421.67" cy="707.08" fill="#8b9ad9"></circle><circle r="5" cx="1584.37" cy="42.31" fill="#8b9ad9"></circle><circle r="5" cx="1585.6" cy="224.25" fill="#8b9ad9"></circle><circle r="5" cx="1612.46" cy="357.98" fill="#8b9ad9"></circle><circle r="5" cx="1591.74" cy="676.17" fill="#8b9ad9"></circle></g><defs><mask id="SvgjsMask1000"><rect width="1440" height="560" fill="#ffffff"></rect></mask><radialGradient id="SvgjsRadialGradient1001"><stop stop-color="#ffffff" offset="0.1"></stop><stop stop-color="#1735b3" offset="0.2"></stop><stop stop-color="rgba(23, 53, 179, 0)" offset="1"></stop></radialGradient></defs></svg>